name D:\school\WTK\thesis\model\3dpredictsim\Results\Batchsim_tmt_linear_v2\Pog_s1_tmt_bCst_d00_k2000_ig24_pas.mot
datacolumns 128
datarows 4
range 1.07282174 1.10500639
endheader
time	pelvis_tilt	pelvis_list	pelvis_rotation	pelvis_tx	pelvis_ty	pelvis_tz	hip_flexion_l	hip_adduction_l	hip_rotation_l	hip_flexion_r	hip_adduction_r	hip_rotation_r	knee_angle_l	knee_angle_r	ankle_angle_l	ankle_angle_r	subtalar_angle_l	subtalar_angle_r	tmt_angle_l	tmt_angle_r	mtp_angle_l	mtp_angle_r	lumbar_extension	lumbar_bending	lumbar_rotation	arm_flex_l	arm_add_l	arm_rot_l	arm_flex_r	arm_add_r	arm_rot_r	elbow_flex_l	elbow_flex_r	pro_sup_l	pro_sup_r	glut_med1_l/activation	glut_med2_l/activation	glut_med3_l/activation	glut_min1_l/activation	glut_min2_l/activation	glut_min3_l/activation	semimem_l/activation	semiten_l/activation	bifemlh_l/activation	bifemsh_l/activation	sar_l/activation	add_long_l/activation	add_brev_l/activation	add_mag1_l/activation	add_mag2_l/activation	add_mag3_l/activation	tfl_l/activation	pect_l/activation	grac_l/activation	glut_max1_l/activation	glut_max2_l/activation	glut_max3_l/activation	iliacus_l/activation	psoas_l/activation	quad_fem_l/activation	gem_l/activation	peri_l/activation	rect_fem_l/activation	vas_med_l/activation	vas_int_l/activation	vas_lat_l/activation	med_gas_l/activation	lat_gas_l/activation	soleus_l/activation	tib_post_l/activation	flex_dig_l/activation	flex_hal_l/activation	tib_ant_l/activation	per_brev_l/activation	per_long_l/activation	per_tert_l/activation	ext_dig_l/activation	ext_hal_l/activation	ercspn_l/activation	intobl_l/activation	extobl_l/activation	glut_med1_r/activation	glut_med2_r/activation	glut_med3_r/activation	glut_min1_r/activation	glut_min2_r/activation	glut_min3_r/activation	semimem_r/activation	semiten_r/activation	bifemlh_r/activation	bifemsh_r/activation	sar_r/activation	add_long_r/activation	add_brev_r/activation	add_mag1_r/activation	add_mag2_r/activation	add_mag3_r/activation	tfl_r/activation	pect_r/activation	grac_r/activation	glut_max1_r/activation	glut_max2_r/activation	glut_max3_r/activation	iliacus_r/activation	psoas_r/activation	quad_fem_r/activation	gem_r/activation	peri_r/activation	rect_fem_r/activation	vas_med_r/activation	vas_int_r/activation	vas_lat_r/activation	med_gas_r/activation	lat_gas_r/activation	soleus_r/activation	tib_post_r/activation	flex_dig_r/activation	flex_hal_r/activation	tib_ant_r/activation	per_brev_r/activation	per_long_r/activation	per_tert_r/activation	ext_dig_r/activation	ext_hal_r/activation	ercspn_r/activation	intobl_r/activation	extobl_r/activation	
          1.07282174	         -2.92018876	          0.88062839	          4.87395121	          1.34102717	          0.87287692	         -0.00215146	        -18.19049085	          1.31782356	          5.95165814	         25.97042523	         -0.26520954	         -3.12967448	         -4.94850865	         -7.04717023	         -9.79299111	          5.71514441	          6.32046412	          3.48042600	          0.54691141	          0.01788805	         28.06899747	         -0.10957885	          0.62822159	         -3.17921448	         -1.64169486	          3.76881761	        -13.47013253	         12.27967156	         -8.72099772	        -13.45071533	         12.89689117	         25.57806432	         16.74198895	         86.51662706	         86.51662706	          0.26989169	          0.08817691	          0.07800181	          0.25181852	          0.15187577	          0.09022938	          0.05000091	          0.05000015	          0.05000013	          0.05000014	          0.09654795	          0.05780349	          0.05000015	          0.05000028	          0.05000104	          0.05000090	          0.21961857	          0.05000053	          0.05000033	          0.05000637	          0.05000353	          0.05000193	          0.36979422	          0.66442917	          0.05000033	          0.05000856	          0.05894040	          0.30256387	          0.05884206	          0.05742683	          0.06433621	          0.18806385	          0.27760061	          0.21684708	          0.22619315	          0.20136609	          0.27666622	          0.05000001	          0.08661541	          0.14283416	          0.05000015	          0.05000004	          0.05000012	          0.05000000	          0.05000001	          0.05000001	          0.06616245	          0.07968687	          0.05068198	          0.05000036	          0.05000063	          0.05001660	          0.06947873	          0.05894152	          0.12866949	          0.05000130	          0.05000036	          0.05000029	          0.05313906	          0.10100426	          0.13811550	          0.14829321	          0.05000140	          0.05000067	          0.05231805	          0.05894144	          0.11474470	          0.16526729	          0.05000005	          0.05000008	          0.06295047	          0.05894031	          0.05000167	          0.05000030	          0.05000107	          0.05000151	          0.05000070	          0.05000009	          0.05000023	          0.05818116	          0.05810504	          0.05894026	          0.05894021	          0.47635160	          0.30735698	          0.19842488	          0.22366014	          0.47926138	          0.26806681	          0.05058746	          0.14168396	          0.14257974	
          1.08354995	         -2.90424324	          0.94229668	          5.03346828	          1.35776653	          0.87145212	         -0.00201482	        -18.05321941	          1.18311471	          5.72222556	         25.53465302	         -0.13471152	         -2.90155620	         -6.98195300	         -6.90876837	        -10.48627855	          5.21376274	          7.40989110	          3.01410961	          0.50578081	          0.01809874	         28.90554794	         -0.08767376	          0.83780199	         -3.01238344	         -1.70069252	          3.57417707	        -13.49737431	         12.58794569	         -9.88936359	        -13.44971204	         12.72500725	         26.40856922	         16.75012978	         86.51662706	         86.51662706	          0.22895399	          0.07480205	          0.06617037	          0.21362220	          0.12883894	          0.07654322	          0.05000041	          0.05000008	          0.05000007	          0.05000014	          0.08190355	          0.14089518	          0.13400302	          0.05001266	          0.05000203	          0.05000023	          0.18630638	          0.12385065	          0.05893650	          0.05000096	          0.05000053	          0.05000055	          0.31370303	          0.60355908	          0.06947857	          0.05000053	          0.05000035	          0.25667031	          0.12914297	          0.15749546	          0.09433888	          0.15953790	          0.23549354	          0.19147302	          0.19188386	          0.17082288	          0.23470109	          0.05000001	          0.07347745	          0.13954479	          0.05000007	          0.05000002	          0.05000008	          0.05000010	          0.05052877	          0.05056550	          0.10760437	          0.06760002	          0.28143994	          0.05894030	          0.05894025	          0.05000422	          0.05894022	          0.05000120	          0.11816753	          0.05000016	          0.05000103	          0.08940564	          0.11684060	          0.17848926	          0.20012298	          0.18052757	          0.05000013	          0.06949799	          0.05000274	          0.05000115	          0.09734009	          0.21532022	          0.05894016	          0.05000070	          0.05340204	          0.05000038	          0.12049446	          0.06227207	          0.22886024	          0.23322178	          0.19491035	          0.05000000	          0.05000000	          0.05000000	          0.05000000	          0.05000012	          0.05000008	          0.62658026	          0.33132898	          0.16834318	          0.54738015	          0.57024106	          0.37837046	          0.05000003	          0.12019301	          0.12095293	
          1.09427817	         -2.88113947	          0.98719846	          5.16777773	          1.37478770	          0.86993465	         -0.00187770	        -17.80501772	          1.03858955	          5.48735382	         25.01629431	         -0.00971127	         -2.63616634	         -9.22994578	         -7.40721381	        -11.17990587	          4.50079356	          8.49544859	          2.54574068	          0.44621205	          0.01260858	         29.35259051	         -0.04990030	          1.06859089	         -2.81274907	         -1.75189734	          3.30869937	        -13.53138204	         12.86246166	        -11.07147468	        -13.45616651	         12.58888218	         27.23372686	         16.76676501	         86.51662706	         86.51662706	          0.19422577	          0.06345593	          0.05894012	          0.18121960	          0.10929639	          0.06493300	          0.05000133	          0.05000012	          0.05000021	          0.05000004	          0.06948032	          0.18292056	          0.28494247	          0.10286667	          0.05893653	          0.10709600	          0.15804704	          0.10506489	          0.05000037	          0.05001513	          0.05101511	          0.05893922	          0.26611986	          0.52296666	          0.05894014	          0.05894008	          0.05000068	          0.21773798	          0.13415884	          0.13415925	          0.13415859	          0.13533883	          0.19977335	          0.16242996	          0.16277851	          0.14491219	          0.19910117	          0.05000002	          0.06233228	          0.14190464	          0.05000006	          0.05000010	          0.05000012	          0.05278773	          0.06454046	          0.06371436	          0.16071406	          0.06523771	          0.23875138	          0.05000015	          0.05000014	          0.05000029	          0.05000007	          0.05000007	          0.10024363	          0.05000003	          0.05000013	          0.07584444	          0.09911799	          0.20734226	          0.23410444	          0.17964609	          0.05000134	          0.05895669	          0.05000045	          0.13267408	          0.14976868	          0.20089647	          0.05000006	          0.05000012	          0.17105703	          0.05758490	          0.10221764	          0.06875170	          0.22054130	          0.23718715	          0.17575149	          0.05000207	          0.05894030	          0.05000013	          0.05893909	          0.05894269	          0.05894067	          0.53153915	          0.35156631	          0.18280663	          0.46435232	          0.48374565	          0.32097839	          0.05000000	          0.10196187	          0.10260651	
          1.10500639	         -2.85320533	          1.01523409	          5.27585528	          1.39191050	          0.86830577	         -0.00174965	        -17.44956941	          0.88990908	          5.24868982	         24.39931578	          0.09310631	         -2.34516134	        -11.66506986	         -8.28912300	        -11.80466123	          3.93524274	          9.54169385	          2.03921639	          0.36415100	         -0.00479660	         29.21552215	         -0.19015704	          1.30323892	         -2.58319565	         -1.79280236	          3.00056268	        -13.56992425	         13.10425679	        -12.22791153	        -13.47439779	         12.53016856	         28.05154312	         16.76258049	         86.51662706	         86.51662706	          0.19597154	          0.05383080	          0.05000001	          0.15374612	          0.09271810	          0.05508385	          0.05000286	          0.05000020	          0.05000015	          0.05000017	          0.05894167	          0.18902279	          0.29249117	          0.08726382	          0.05000220	          0.09085168	          0.13407416	          0.08912899	          0.05000064	          0.05000045	          0.05000031	          0.05000037	          0.22575421	          0.47977273	          0.05000005	          0.05000016	          0.05000005	          0.18471099	          0.11380935	          0.11380969	          0.11380913	          0.11481033	          0.16947129	          0.13779222	          0.13808792	          0.12293166	          0.16890112	          0.05556204	          0.12031404	          0.12038069	          0.07533350	          0.16118933	          0.05000944	          0.06841737	          0.05475082	          0.05405050	          0.27553120	          0.25792619	          0.38842909	          0.25535347	          0.19783075	          0.22791428	          0.06947799	          0.08683863	          0.09051075	          0.06947927	          0.05894004	          0.06434021	          0.08408358	          0.17589218	          0.19859510	          0.18639552	          0.05000020	          0.05001474	          0.05021371	          0.20133476	          0.19292559	          0.20387958	          0.05000073	          0.05000028	          0.14511075	          0.05038092	          0.19905955	          0.05832330	          0.18708912	          0.20121009	          0.14909313	          0.05000011	          0.05000019	          0.05000003	          0.05000000	          0.05000221	          0.05000051	          0.58156192	          0.29823999	          0.15507813	          0.66655709	          0.58876148	          0.35354525	          0.05000001	          0.08649606	          0.08704293	
